<svg version="1.1" xmlns="http://www.w3.org/2000/svg" xmlns:xlink="http://www.w3.org/1999/xlink" xmlns:i="http://ns.adobe.com/AdobeIllustrator/10.0/" xmlns:sketch="http://www.bohemiancoding.com/sketch/ns" height="100%" width="100%" x="0px" y="0px" viewBox="0 0 640 480" xml:space="preserve" preserveAspectRatio="xMidYMid meet" class="">{{text2Gradient}}<rect x="0px" y="0px" width="50%" height="50%" fill="#2f3129"></rect><g class="logo-container-box logoContainerBox" transform="scale(0.99) translate(3.2322850853505543,2.4242195360588426)"><g class="containerBody" transform="scale(0.7288924347326233) translate(193.2970195361737,89.26669089114392)"><g class="sampleIconBox" transform="scale(1) translate(0,0)"><g class="sampleIcons_1" transform="scale(1.1904761904761905) translate(365.32,137.6)" fill="#ffed9d"><g><path d="M26,23c0,1.7,1.3,3,3,3h70c1.7,0,3-1.3,3-3s-1.3-3-3-3H29C27.3,20,26,21.3,26,23z"></path><path d="M89,7c1.7,0,3-1.3,3-3s-1.3-3-3-3H39c-1.7,0-3,1.3-3,3s1.3,3,3,3H89z"></path><path d="M117,52c0-7.2-5.8-13-13-13H24c-7.2,0-13,5.8-13,13v62c0,7.2,5.8,13,13,13h80c6.9,0,13-5.6,13-12V52z M111,115  c0,2.8-3.1,6-7,6H24c-3.9,0-7-3.1-7-7V52c0-3.9,3.1-7,7-7h80c3.9,0,7,3.1,7,7V115z"></path><path d="M98.3,64.9c0,0.1-5.1,6-11.9,11.8C77.6,84.1,69.9,88,64,88c-5.9,0-13.6-3.9-22.4-11.3c-6.9-5.8-11.9-11.7-11.9-11.8  c-1.1-1.3-3-1.4-4.2-0.4s-1.4,3-0.4,4.2C26,69.8,46.6,94,64,94c17.4,0,38-24.2,38.9-25.2c1.1-1.3,0.9-3.2-0.4-4.2  C101.3,63.5,99.4,63.6,98.3,64.9z"></path></g></g></g><g class="sampleTexts_1" transform="scale(1) translate(0.000004577636730118684,50.72998809814453)"><g class="logo--name svgLogoName_1 logoNameBox" transform="scale(1) translate(-75.37000865936278,212.04999542236328)" fill="#ffed9d"><path d="M61.98-37.24L61.98-37.24L61.98-37.24Q61.98-34.27 59.90-32.07L59.90-32.07L59.90-32.07Q57.82-29.87 54.49-28.23L54.49-28.23L54.49-28.23Q51.17-26.59 47.13-25.46L47.13-25.46L47.13-25.46Q43.08-24.34 39.12-23.62L39.12-23.62L39.12-23.62Q35.15-22.90 31.75-22.54L31.75-22.54L31.75-22.54Q28.35-22.18 26.35-22.10L26.35-22.10L26.99-5.77L45.56 1.92L-4.96 2.56L12.25-6.49L11.53-44.04L-7.37-52.61L31.15-51.57L31.15-51.57Q33.31-51.49 36.48-51.25L36.48-51.25L36.48-51.25Q39.64-51.01 43.04-50.41L43.04-50.41L43.04-50.41Q46.45-49.81 49.85-48.81L49.85-48.81L49.85-48.81Q53.25-47.81 55.93-46.25L55.93-46.25L55.93-46.25Q58.62-44.68 60.30-42.48L60.30-42.48L60.30-42.48Q61.98-40.28 61.98-37.24ZM50.93-37.24L50.93-37.24L50.93-37.24Q50.93-38.68 49.81-39.76L49.81-39.76L49.81-39.76Q48.69-40.84 46.93-41.60L46.93-41.60L46.93-41.60Q45.16-42.36 43.00-42.88L43.00-42.88L43.00-42.88Q40.84-43.40 38.76-43.68L38.76-43.68L38.76-43.68Q36.68-43.96 34.95-44.08L34.95-44.08L34.95-44.08Q33.23-44.20 32.27-44.20L32.27-44.20L32.27-44.20Q30.43-44.20 28.51-44.12L28.51-44.12L28.51-44.12Q26.59-44.04 24.74-43.88L24.74-43.88L25.14-29.15L25.14-29.15Q26.19-28.99 27.11-28.99L27.11-28.99L27.11-28.99Q28.03-28.99 28.99-28.99L28.99-28.99L28.99-28.99Q30.11-28.99 32.15-29.11L32.15-29.11L32.15-29.11Q34.19-29.23 36.64-29.59L36.64-29.59L36.64-29.59Q39.08-29.95 41.60-30.55L41.60-30.55L41.60-30.55Q44.12-31.15 46.21-32.07L46.21-32.07L46.21-32.07Q48.29-32.99 49.61-34.27L49.61-34.27L49.61-34.27Q50.93-35.55 50.93-37.24ZM112.51-39.08L112.51-39.08L112.51-39.08Q112.51-35.79 110.51-33.67L110.51-33.67L110.51-33.67Q108.51-31.55 105.14-31.55L105.14-31.55L105.14-31.55Q102.66-31.55 101.30-32.47L101.30-32.47L101.30-32.47Q99.94-33.39 99.02-34.55L99.02-34.55L99.02-34.55Q98.10-35.71 97.17-36.64L97.17-36.64L97.17-36.64Q96.25-37.56 94.57-37.56L94.57-37.56L94.57-37.56Q91.61-37.56 89.85-35.67L89.85-35.67L89.85-35.67Q88.09-33.79 87.21-31.23L87.21-31.23L87.21-31.23Q87.13-31.07 87.08-29.71L87.08-29.71L87.08-29.71Q87.04-28.35 86.96-26.27L86.96-26.27L86.96-26.27Q86.88-24.18 86.80-21.70L86.80-21.70L86.80-21.70Q86.72-19.22 86.64-16.98L86.64-16.98L86.64-16.98Q86.56-14.73 86.48-13.01L86.48-13.01L86.48-13.01Q86.40-11.29 86.40-10.73L86.40-10.73L105.86-3.68L59.58 1.04L59.58 1.04Q63.74-1.60 67.91-4.20L67.91-4.20L67.91-4.20Q72.07-6.81 76.23-9.37L76.23-9.37L73.27-37.32L55.41-42.12L87.69-49.17L87.53-41.80L87.53-41.80Q90.89-44.12 94.45-45.76L94.45-45.76L94.45-45.76Q98.02-47.41 102.34-47.41L102.34-47.41L102.34-47.41Q103.78-47.41 105.30-47.09L105.30-47.09L105.30-47.09Q106.82-46.77 108.19-46.13L108.19-46.13L108.19-46.13Q109.55-45.48 110.59-44.40L110.59-44.40L110.59-44.40Q111.63-43.32 112.11-41.80L112.11-41.80L112.11-41.80Q112.51-40.36 112.51-39.08ZM165.44-19.38L165.44-19.38L165.44-19.38Q165.44-13.85 162.68-10.05L162.68-10.05L162.68-10.05Q159.92-6.25 155.63-3.88L155.63-3.88L155.63-3.88Q151.35-1.52 146.30-0.44L146.30-0.44L146.30-0.44Q141.26 0.64 136.69 0.64L136.69 0.64L136.69 0.64Q132.21 0.64 127.36-0.48L127.36-0.48L127.36-0.48Q122.52-1.60 118.48-4.00L118.48-4.00L118.48-4.00Q114.43-6.41 111.83-10.21L111.83-10.21L111.83-10.21Q109.23-14.01 109.23-19.38L109.23-19.38L109.23-19.38Q109.23-25.22 112.03-29.07L112.03-29.07L112.03-29.07Q114.83-32.91 119.12-35.15L119.12-35.15L119.12-35.15Q123.40-37.40 128.57-38.28L128.57-38.28L128.57-38.28Q133.73-39.16 138.54-39.16L138.54-39.16L138.54-39.16Q142.94-39.16 147.70-38.04L147.70-38.04L147.70-38.04Q152.47-36.92 156.43-34.55L156.43-34.55L156.43-34.55Q160.40-32.19 162.92-28.43L162.92-28.43L162.92-28.43Q165.44-24.66 165.44-19.38ZM152.23-19.54L152.23-19.54L152.23-19.54Q152.23-22.42 151.15-24.82L151.15-24.82L151.15-24.82Q150.07-27.23 148.18-28.99L148.18-28.99L148.18-28.99Q146.30-30.75 143.82-31.71L143.82-31.71L143.82-31.71Q141.34-32.67 138.54-32.67L138.54-32.67L138.54-32.67Q135.65-32.67 132.77-31.83L132.77-31.83L132.77-31.83Q129.89-30.99 127.56-29.39L127.56-29.39L127.56-29.39Q125.24-27.79 123.80-25.34L123.80-25.34L123.80-25.34Q122.36-22.90 122.36-19.78L122.36-19.78L122.36-19.78Q122.36-16.66 123.36-14.09L123.36-14.09L123.36-14.09Q124.36-11.53 126.24-9.69L126.24-9.69L126.24-9.69Q128.13-7.85 130.69-6.85L130.69-6.85L130.69-6.85Q133.25-5.85 136.37-5.85L136.37-5.85L136.37-5.85Q139.74-5.85 142.62-6.61L142.62-6.61L142.62-6.61Q145.50-7.37 147.66-9.05L147.66-9.05L147.66-9.05Q149.83-10.73 151.03-13.33L151.03-13.33L151.03-13.33Q152.23-15.94 152.23-19.54ZM184.26-51.57L184.26-51.57L184.26-51.57Q184.26-49.81 183.58-48.29L183.58-48.29L183.58-48.29Q182.90-46.77 181.78-45.60L181.78-45.60L181.78-45.60Q180.66-44.44 179.09-43.80L179.09-43.80L179.09-43.80Q177.53-43.16 175.77-43.16L175.77-43.16L175.77-43.16Q174.01-43.16 172.45-43.80L172.45-43.80L172.45-43.80Q170.89-44.44 169.73-45.60L169.73-45.60L169.73-45.60Q168.56-46.77 167.88-48.29L167.88-48.29L167.88-48.29Q167.20-49.81 167.20-51.57L167.20-51.57L167.20-51.57Q167.20-53.33 167.88-54.89L167.88-54.89L167.88-54.89Q168.56-56.46 169.73-57.62L169.73-57.62L169.73-57.62Q170.89-58.78 172.45-59.46L172.45-59.46L172.45-59.46Q174.01-60.14 175.77-60.14L175.77-60.14L175.77-60.14Q177.53-60.14 179.09-59.46L179.09-59.46L179.09-59.46Q180.66-58.78 181.78-57.62L181.78-57.62L181.78-57.62Q182.90-56.46 183.58-54.89L183.58-54.89L183.58-54.89Q184.26-53.33 184.26-51.57ZM190.59 7.53L190.59 7.53L190.59 7.53Q190.59 12.25 189.63 16.02L189.63 16.02L189.63 16.02Q188.66 19.78 186.54 22.42L186.54 22.42L186.54 22.42Q184.42 25.06 180.98 26.51L180.98 26.51L180.98 26.51Q177.53 27.95 172.57 27.95L172.57 27.95L172.57 27.95Q169.61 27.95 166.72 26.95L166.72 26.95L166.72 26.95Q163.84 25.95 161.56 24.14L161.56 24.14L161.56 24.14Q159.28 22.34 157.83 19.78L157.83 19.78L157.83 19.78Q156.39 17.22 156.39 14.01L156.39 14.01L156.39 14.01Q156.39 11.29 158.07 9.53L158.07 9.53L158.07 9.53Q159.76 7.77 162.56 7.77L162.56 7.77L162.56 7.77Q165.12 7.77 167.08 9.45L167.08 9.45L167.08 9.45Q169.04 11.13 169.04 13.85L169.04 13.85L169.04 13.85Q169.04 15.21 168.44 16.34L168.44 16.34L168.44 16.34Q167.84 17.46 166.80 18.26L166.80 18.26L166.80 18.26Q167.68 20.02 169.00 20.94L169.00 20.94L169.00 20.94Q170.33 21.86 172.33 21.86L172.33 21.86L172.33 21.86Q174.41 21.86 175.73 21.14L175.73 21.14L175.73 21.14Q177.05 20.42 177.81 19.22L177.81 19.22L177.81 19.22Q178.57 18.02 178.85 16.42L178.85 16.42L178.85 16.42Q179.13 14.81 179.13 12.97L179.13 12.97L179.13 12.97Q179.13 11.29 178.97 9.57L178.97 9.57L178.97 9.57Q178.81 7.85 178.65 6.25L178.65 6.25L178.65 6.25Q177.61-2.96 176.61-11.97L176.61-11.97L176.61-11.97Q175.61-20.98 174.41-30.11L174.41-30.11L159.28-36.44L186.34-39.64L189.71-6.01L189.71-6.01Q190.11-2.56 190.35 0.80L190.35 0.80L190.35 0.80Q190.59 4.16 190.59 7.53ZM239.19-14.57L239.19-14.57L239.19-14.57Q239.19-14.01 239.15-13.45L239.15-13.45L239.15-13.45Q239.11-12.89 239.11-12.33L239.11-12.33L206.52-11.69L206.52-11.69Q207.56-6.97 211.25-4.72L211.25-4.72L211.25-4.72Q214.93-2.48 219.57-2.48L219.57-2.48L219.57-2.48Q221.82-2.48 224.14-2.80L224.14-2.80L224.14-2.80Q226.46-3.12 228.70-3.84L228.70-3.84L228.70-3.84Q230.95-4.56 232.95-5.73L232.95-5.73L232.95-5.73Q234.95-6.89 236.55-8.49L236.55-8.49L236.55-8.49Q235.67-5.13 233.59-2.56L233.59-2.56L233.59-2.56Q231.51 0 228.66 1.68L228.66 1.68L228.66 1.68Q225.82 3.36 222.50 4.20L222.50 4.20L222.50 4.20Q219.17 5.04 215.89 5.04L215.89 5.04L215.89 5.04Q211.41 5.04 207.36 3.44L207.36 3.44L207.36 3.44Q203.32 1.84 200.32-0.96L200.32-0.96L200.32-0.96Q197.31-3.76 195.55-7.69L195.55-7.69L195.55-7.69Q193.79-11.61 193.79-16.26L193.79-16.26L193.79-16.26Q193.79-21.14 195.79-25.14L195.79-25.14L195.79-25.14Q197.79-29.15 201.08-31.99L201.08-31.99L201.08-31.99Q204.36-34.83 208.68-36.36L208.68-36.36L208.68-36.36Q213.01-37.88 217.73-37.88L217.73-37.88L217.73-37.88Q222.70-37.88 226.66-36.04L226.66-36.04L226.66-36.04Q230.63-34.19 233.43-30.99L233.43-30.99L233.43-30.99Q236.23-27.79 237.71-23.58L237.71-23.58L237.71-23.58Q239.19-19.38 239.19-14.57ZM206.52-18.98L226.94-18.66L226.94-18.66Q226.78-20.82 226.06-22.82L226.06-22.82L226.06-22.82Q225.34-24.82 224.06-26.35L224.06-26.35L224.06-26.35Q222.78-27.87 220.98-28.79L220.98-28.79L220.98-28.79Q219.17-29.71 216.77-29.71L216.77-29.71L216.77-29.71Q214.37-29.71 212.61-28.83L212.61-28.83L212.61-28.83Q210.85-27.95 209.64-26.47L209.64-26.47L209.64-26.47Q208.44-24.98 207.68-23.02L207.68-23.02L207.68-23.02Q206.92-21.06 206.52-18.98L206.52-18.98ZM287.56-16.34L287.56-16.34L287.56-16.34Q287.64-11.21 286.16-7.21L286.16-7.21L286.16-7.21Q284.68-3.20 281.83-0.48L281.83-0.48L281.83-0.48Q278.99 2.24 274.95 3.64L274.95 3.64L274.95 3.64Q270.90 5.04 265.94 5.04L265.94 5.04L265.94 5.04Q261.05 5.04 256.77 3.44L256.77 3.44L256.77 3.44Q252.49 1.84 249.32-1.12L249.32-1.12L249.32-1.12Q246.16-4.08 244.32-8.17L244.32-8.17L244.32-8.17Q242.48-12.25 242.48-17.30L242.48-17.30L242.48-17.30Q242.48-22.58 244.56-26.91L244.56-26.91L244.56-26.91Q246.64-31.23 250.16-34.27L250.16-34.27L250.16-34.27Q253.69-37.32 258.29-38.96L258.29-38.96L258.29-38.96Q262.90-40.60 267.94-40.60L267.94-40.60L267.94-40.60Q270.66-40.60 273.91-39.72L273.91-39.72L273.91-39.72Q277.15-38.84 279.99-37.16L279.99-37.16L279.99-37.16Q282.84-35.47 284.72-32.99L284.72-32.99L284.72-32.99Q286.60-30.51 286.60-27.23L286.60-27.23L286.60-27.23Q286.60-24.18 284.76-22.34L284.76-22.34L284.76-22.34Q282.92-20.50 279.87-20.50L279.87-20.50L279.87-20.50Q276.83-20.50 274.67-22.22L274.67-22.22L274.67-22.22Q272.51-23.94 272.51-27.07L272.51-27.07L272.51-27.07Q272.51-28.11 272.71-29.27L272.71-29.27L272.71-29.27Q272.91-30.43 273.47-31.31L273.47-31.31L273.47-31.31Q272.11-32.43 270.50-32.91L270.50-32.91L270.50-32.91Q268.90-33.39 267.22-33.39L267.22-33.39L267.22-33.39Q264.18-33.39 262.06-31.91L262.06-31.91L262.06-31.91Q259.93-30.43 258.61-28.19L258.61-28.19L258.61-28.19Q257.29-25.95 256.73-23.18L256.73-23.18L256.73-23.18Q256.17-20.42 256.17-17.94L256.17-17.94L256.17-17.94Q256.17-14.81 257.13-12.21L257.13-12.21L257.13-12.21Q258.09-9.61 259.93-7.73L259.93-7.73L259.93-7.73Q261.78-5.85 264.34-4.76L264.34-4.76L264.34-4.76Q266.90-3.68 270.18-3.68L270.18-3.68L270.18-3.68Q273.07-3.68 275.63-4.80L275.63-4.80L275.63-4.80Q278.19-5.93 280.35-7.73L280.35-7.73L280.35-7.73Q282.52-9.53 284.32-11.77L284.32-11.77L284.32-11.77Q286.12-14.01 287.56-16.34ZM308.86-53.33L324.32-51.73L323.60-44.20L323.60-44.20Q319.67-44.52 315.83-44.80L315.83-44.80L315.83-44.80Q311.98-45.08 308.06-45.48L308.06-45.48L308.06-45.48Q307.42-37.88 306.70-30.35L306.70-30.35L306.70-30.35Q305.98-22.82 305.26-15.21L305.26-15.21L305.26-15.21Q305.26-14.81 305.18-14.41L305.18-14.41L305.18-14.41Q305.10-14.01 305.10-13.61L305.10-13.61L305.10-13.61Q305.10-12.49 305.34-11.33L305.34-11.33L305.34-11.33Q305.58-10.17 306.14-9.25L306.14-9.25L306.14-9.25Q306.70-8.33 307.62-7.73L307.62-7.73L307.62-7.73Q308.54-7.13 309.90-7.13L309.90-7.13L309.90-7.13Q312.54-7.13 314.55-8.37L314.55-8.37L314.55-8.37Q316.55-9.61 317.91-11.53L317.91-11.53L317.91-11.53Q319.27-13.45 320.07-15.82L320.07-15.82L320.07-15.82Q320.87-18.18 321.11-20.50L321.11-20.50L321.11-20.50Q322.07-16.74 322.07-13.05L322.07-13.05L322.07-13.05Q322.07-9.53 320.95-6.69L320.95-6.69L320.95-6.69Q319.83-3.84 317.83-1.80L317.83-1.80L317.83-1.80Q315.83 0.24 313.03 1.36L313.03 1.36L313.03 1.36Q310.22 2.48 306.86 2.48L306.86 2.48L306.86 2.48Q303.34 2.48 300.69 1.28L300.69 1.28L300.69 1.28Q298.05 0.08 296.33-2.04L296.33-2.04L296.33-2.04Q294.61-4.16 293.77-7.05L293.77-7.05L293.77-7.05Q292.93-9.93 292.93-13.21L292.93-13.21L292.93-13.21Q292.93-13.85 292.93-14.41L292.93-14.41L292.93-14.41Q292.93-14.97 293.01-15.62L293.01-15.62L293.01-15.62Q293.65-23.38 294.25-30.95L294.25-30.95L294.25-30.95Q294.85-38.52 295.33-46.29L295.33-46.29L295.33-46.29Q293.17-46.45 291.04-46.65L291.04-46.65L291.04-46.65Q288.92-46.85 286.76-47.09L286.76-47.09L287.08-53.41L287.08-53.41Q288.76-53.49 290.60-53.97L290.60-53.97L290.60-53.97Q292.45-54.45 294.17-55.25L294.17-55.25L294.17-55.25Q295.89-56.05 297.37-57.18L297.37-57.18L297.37-57.18Q298.85-58.30 299.81-59.74L299.81-59.74L299.81-59.74Q300.69-61.18 301.45-62.86L301.45-62.86L301.45-62.86Q302.21-64.54 302.82-66.38L302.82-66.38L302.82-66.38Q303.42-68.23 303.82-70.03L303.82-70.03L303.82-70.03Q304.22-71.83 304.38-73.51L304.38-73.51L310.94-73.35L308.86-53.33ZM327.60-35.71L362.43-33.55L361.79-22.58L327.12-21.22L327.60-35.71ZM425.62-59.10L428.10-59.26L426.82-30.75L417.21-51.65L394.71-49.81L394.22-28.51L401.67-28.91L410.40-45.48L409.52-7.53L401.19-20.02L394.06-20.50L393.66-5.04L417.69-5.21L425.62-28.59L425.86 1.44L362.11 1.92L362.11 1.92Q366.92 0 371.64-2.04L371.64-2.04L371.64-2.04Q376.37-4.08 381.17-5.77L381.17-5.77L379.73-47.65L379.73-47.65Q374.69-49.17 369.80-50.85L369.80-50.85L369.80-50.85Q364.92-52.53 359.95-54.21L359.95-54.21L425.62-59.10ZM487.44-6.41L504.17-0.08L459.65-0.08L475.34-6.41L475.02-20.02L453.24-17.78L453.00 0.48L471.58 6.81L423.85 6.81L423.85 6.81Q427.94 5.21 432.18 3.52L432.18 3.52L432.18 3.52Q436.43 1.84 440.51 0.48L440.51 0.48L439.23-43.80L439.23-43.80Q435.14-45.40 431.18-47.37L431.18-47.37L431.18-47.37Q427.22-49.33 423.21-51.17L423.21-51.17L467.66-50.69L453.80-44.20L453.40-26.43L474.78-26.43L474.14-50.29L457.81-57.58L502.65-57.10L488.64-50.61L487.44-6.41Z"></path></g><g id="" class="logo--name svgSloganText_1 sloganBox" transform="scale(1) translate(428.8,259.2)" fill="#ffed9d"></g></g></g></g></svg>